<?xml version="1.0" encoding="UTF-8"?>
<!DOCTYPE svg PUBLIC "-//W3C//DTD SVG 1.1//EN" "http://www.w3.org/Graphics/SVG/1.1/DTD/svg11.dtd">
<svg xmlns="http://www.w3.org/2000/svg" version="1.1" width="512px" height="512px" style="shape-rendering:geometricPrecision; text-rendering:geometricPrecision; image-rendering:optimizeQuality; fill-rule:evenodd; clip-rule:evenodd" xmlns:xlink="http://www.w3.org/1999/xlink">
<g><path style="opacity:0.986" fill="#ffffff" d="M 246.5,11.5 C 341.346,11.6581 414.18,51.3248 465,130.5C 511.257,214.686 510.924,298.686 464,382.5C 415.225,457.646 345.725,496.646 255.5,499.5C 165.282,496.657 95.7821,457.657 47,382.5C 0.158625,298.687 -0.174708,214.687 46,130.5C 92.5658,57.118 159.399,17.4513 246.5,11.5 Z M 247.5,102.5 C 294.759,101.869 329.592,122.203 352,163.5C 372.301,215.128 361.468,258.961 319.5,295C 274.213,324.642 229.88,323.309 186.5,291C 147.859,254.001 139.026,210.834 160,161.5C 179.031,126.739 208.198,107.072 247.5,102.5 Z M 194.5,339.5 C 235.168,339.333 275.835,339.5 316.5,340C 358.679,342.246 389.679,361.912 409.5,399C 358.789,451.24 297.123,472.907 224.5,464C 175.961,456.234 134.961,434.568 101.5,399C 121.529,361.987 152.529,342.154 194.5,339.5 Z"/></g>
</svg>
