<svg version="1.1" id="Layer_1" xmlns="http://www.w3.org/2000/svg" xmlns:xlink="http://www.w3.org/1999/xlink" x="0px" y="0px"
	 height="600px" width="600px" viewBox="20 10 400 415" enable-background="new 0 0 464 432" xml:space="preserve" preserveAspectRatio="xMidYMid meet">
<path fill="#ffffff" opacity="1.000000" stroke="#ffffff" stroke-width="3" 
	d="
M150.842896,406.234985 
	C144.785522,406.554108 139.426514,405.521667 134.324432,403.249329 
	C132.329865,402.360992 130.716446,402.290771 128.836639,403.785309 
	C119.393997,411.292847 107.947563,413.094482 96.505447,414.189331 
	C78.219177,415.939178 59.919449,414.550049 41.651794,413.246613 
	C39.375690,413.084198 36.967613,412.844421 35.516525,410.253815 
	C36.682186,407.849304 39.166988,407.063477 41.246983,405.871613 
	C50.598057,400.513336 58.792862,393.763916 65.617233,385.438690 
	C78.539932,369.673920 80.806984,352.810547 71.138985,334.431671 
	C66.501144,325.615112 62.229675,316.579254 62.547337,306.076202 
	C62.712914,300.601624 63.740311,295.569153 66.230362,290.727203 
	C69.337677,284.685028 64.325485,276.412598 57.634819,276.373260 
	C44.399235,276.295471 36.530518,270.520172 33.805489,257.581879 
	C30.960670,244.074875 29.222958,230.344910 29.733673,216.479248 
	C29.962830,210.257797 33.004765,205.022293 36.917648,200.336960 
	C38.361744,198.607803 39.362446,197.056488 38.904762,194.543808 
	C35.680939,176.845154 45.896080,162.133011 60.813717,156.335434 
	C61.569328,156.041779 62.273628,155.616089 63.362221,155.071625 
	C60.382267,150.298691 57.219055,145.876053 55.495163,140.635208 
	C49.235252,121.604294 57.114491,102.808289 75.268517,94.366646 
	C78.491051,92.868156 80.374023,91.030281 81.607544,87.535736 
	C89.101791,66.304672 104.288574,55.588520 126.596336,55.764820 
	C131.065689,55.800144 133.409760,54.104397 136.339432,50.735451 
	C151.081192,33.783298 169.540497,23.290520 192.462250,23.742638 
	C200.736710,23.905846 208.075867,21.039230 215.923279,20.262503 
	C236.811646,18.194984 256.545563,20.725353 272.741638,35.817917 
	C274.637573,37.584656 276.471252,37.327065 278.691772,37.089905 
	C293.154175,35.545322 306.882477,37.609722 319.450409,45.493137 
	C330.820068,52.624928 336.139862,63.291168 333.648804,73.834496 
	C332.308319,79.508003 328.990204,83.349884 323.822571,85.618118 
	C320.500671,87.076202 319.159424,88.770737 319.806000,92.852882 
	C321.097015,101.004036 318.792114,108.738480 314.587921,115.750946 
	C313.040222,118.332428 312.494049,120.391533 314.219910,123.039085 
	C316.821838,127.030563 317.566071,131.680313 318.368134,136.278214 
	C319.394104,142.159576 319.895416,142.447327 325.438141,139.850510 
	C327.062439,139.089523 328.961395,138.730423 330.609283,136.622147 
	C327.646210,131.384979 325.312592,125.589226 324.092865,119.377098 
	C321.325226,105.280937 330.173553,90.841194 343.298584,88.245956 
	C350.451691,86.831558 371.419678,91.483925 375.673187,95.701797 
	C383.527008,103.489784 387.862122,113.123817 389.227234,123.984619 
	C390.499786,134.108780 388.441437,143.231796 379.856873,149.947754 
	C378.263428,151.194366 376.733551,152.578674 374.790283,153.046844 
	C368.250763,154.622314 365.465942,159.953842 361.529572,165.530685 
	C368.769104,165.163544 375.087158,163.428650 381.482483,164.645248 
	C383.927124,165.110291 386.448395,165.215500 388.863251,165.786713 
	C399.979950,168.416245 404.935455,174.386200 405.131470,185.939056 
	C405.288483,195.192947 403.637970,204.192032 399.454590,212.543854 
	C398.205963,215.036575 398.249268,217.022751 399.570923,219.523361 
	C414.105164,247.022491 406.378876,279.871246 381.046906,298.179718 
	C378.524597,300.002655 377.337646,301.790070 377.172821,305.030701 
	C376.322845,321.743622 367.599701,339.946503 344.471039,344.093353 
	C342.467651,344.452576 340.520325,344.677673 339.186340,346.460602 
	C331.628784,356.561554 320.459198,359.749969 308.921082,362.143250 
	C306.161499,362.715637 303.238922,363.391144 300.512482,363.050171 
	C294.770782,362.332184 293.348969,365.243042 292.298401,370.182648 
	C288.579956,387.665558 279.051392,401.231934 263.523407,410.337585 
	C252.795471,416.628418 240.543701,417.766632 233.059784,405.316711 
	C231.571625,402.841034 229.712036,403.664093 227.887360,404.444244 
	C222.987488,406.539215 218.055023,408.450012 212.878281,409.841705 
	C200.457794,413.180878 190.066925,409.654602 181.737411,400.413086 
	C178.314148,396.614990 175.915756,396.399872 171.865021,399.210907 
	C165.768494,403.441589 158.766678,405.666351 150.842896,406.234985 
M154.292816,165.266602 
	C135.362778,157.044525 129.561859,133.652374 142.595581,117.703781 
	C145.646988,113.969948 149.149094,110.607544 152.364929,107.003853 
	C154.430939,104.688675 156.835648,102.553284 157.696411,98.723076 
	C149.053925,95.700172 140.028061,93.553162 133.640594,86.432137 
	C126.616119,78.600967 126.976532,69.577980 129.769501,60.338913 
	C111.022430,56.172367 88.200752,71.826424 85.630470,90.768738 
	C91.551430,91.299019 97.492393,91.557793 103.177078,93.705978 
	C121.336845,100.568375 127.355125,122.857826 114.962761,137.774261 
	C105.735672,148.880692 91.404999,147.446808 84.679070,134.671295 
	C80.739197,127.187744 78.640411,119.195663 78.658218,110.693810 
	C78.666840,106.577286 78.659714,102.460732 78.659714,98.524689 
	C76.937447,97.816811 75.937378,98.477600 74.912521,99.010262 
	C60.849281,106.319473 54.054493,123.059448 59.033932,138.128571 
	C63.546333,151.784317 65.718925,153.044067 79.647255,152.375412 
	C97.537346,151.516602 111.451263,158.163422 119.657387,174.829620 
	C120.584389,176.712311 121.108170,178.936752 123.046860,180.142395 
	C123.467079,180.102585 123.818001,180.139114 124.113159,180.027802 
	C124.890556,179.734589 125.646286,179.382858 126.406204,179.044449 
	C137.157516,174.256638 147.535156,175.255814 157.338486,181.477310 
	C166.429779,187.246872 172.228378,195.237885 172.284271,206.451859 
	C172.301208,209.846512 174.386200,210.516464 176.972519,211.154419 
	C178.787735,211.602142 180.423447,211.778366 181.058014,209.667694 
	C182.622467,204.464142 185.118240,199.628265 187.276260,195.022614 
	C186.204376,193.622589 185.198151,193.531082 184.213898,193.338959 
	C170.370880,190.636856 160.974518,183.069443 157.672089,168.927567 
	C157.290314,167.292740 156.352371,166.301712 154.292816,165.266602 
M94.110252,271.411377 
	C97.071129,271.032501 100.049355,270.228149 102.989906,270.347961 
	C116.112122,270.882782 116.119698,270.983124 121.388985,258.950317 
	C122.189568,257.122101 122.852325,255.231613 123.534431,253.353806 
	C124.615997,250.376358 124.000763,248.218765 121.341408,246.018295 
	C107.218712,234.332504 101.444038,219.709091 106.864716,201.638046 
	C107.785637,198.567947 106.794495,197.046356 104.407318,195.506638 
	C99.160446,192.122330 93.440987,189.997177 87.453552,188.375076 
	C84.124893,187.473282 82.392151,188.234375 81.095901,191.664612 
	C78.359055,198.907166 74.332565,205.404861 67.963554,210.144852 
	C59.940968,216.115479 50.443642,214.720703 44.309635,206.709641 
	C43.233177,205.303772 42.675907,203.393463 40.344799,202.645050 
	C35.943600,207.413086 33.264771,213.121414 33.413540,219.605438 
	C33.699623,232.074066 35.004860,244.543152 37.603157,256.704071 
	C40.176678,268.749023 50.262814,275.127441 60.294273,271.752136 
	C61.066616,269.687653 59.826805,267.873871 59.339878,266.019196 
	C55.565174,251.641479 57.702915,238.294876 66.141518,226.034912 
	C69.958000,220.490158 75.016739,216.650620 81.711807,215.111496 
	C90.634705,213.060211 98.371445,216.658020 100.658028,224.484695 
	C101.811630,228.433319 102.322258,232.590210 101.820000,236.814224 
	C100.326019,249.378738 93.536354,258.643951 83.917160,266.263733 
	C78.949959,270.198456 73.071823,272.562653 67.402824,275.561157 
	C68.489540,278.596527 68.902206,281.409515 71.645088,283.411713 
	C77.866302,277.487823 84.807632,273.070099 94.110252,271.411377 
M230.967789,99.307632 
	C227.971695,99.305115 224.975616,99.305771 221.979523,99.299454 
	C214.247452,99.283134 206.685013,98.398773 199.802231,94.522583 
	C193.458389,90.949913 190.130707,85.294769 190.112167,78.164345 
	C190.093369,70.934937 194.436890,66.607430 201.109070,64.408981 
	C201.681625,64.220329 202.169266,63.773979 203.093918,63.200958 
	C195.226562,59.474316 185.644012,57.994194 183.254440,48.488800 
	C180.825836,38.828156 188.045197,33.219925 194.938965,27.590967 
	C174.304001,26.157526 143.301697,42.029652 137.959030,56.362282 
	C138.704895,57.708569 140.186890,57.747681 141.390656,58.178585 
	C156.855484,63.714527 166.397903,78.744682 164.369293,92.334244 
	C163.857834,95.760536 165.955200,96.430214 168.636154,97.112419 
	C185.644455,101.440460 196.388611,112.088181 198.827957,129.581345 
	C199.730316,136.052475 203.430466,137.432053 208.586197,139.234695 
	C210.668823,121.906189 218.445023,110.029999 237.335983,108.184540 
	C235.601669,104.705482 236.941254,100.158173 230.967789,99.307632 
M79.333580,344.467438 
	C80.373642,348.325378 81.418854,352.187134 81.292488,356.234222 
	C80.754379,373.467896 71.828056,386.406494 59.693508,397.495605 
	C55.006325,401.778961 49.628086,405.306122 43.348831,410.107483 
	C49.664516,410.107483 54.641106,409.882751 59.591286,410.149017 
	C75.405960,410.999634 91.200104,411.660828 106.889008,408.678711 
	C114.066391,407.314423 120.898949,405.190430 126.491661,400.322876 
	C126.094856,399.503204 126.026016,399.123169 125.798500,398.929565 
	C124.278671,397.636322 122.636398,396.475739 121.196251,395.101898 
	C108.910683,383.382202 97.661003,370.993744 94.902679,353.284546 
	C94.688065,351.906647 94.089432,350.825989 93.157394,349.793701 
	C83.192238,338.756470 79.670044,325.984772 82.954376,311.417450 
	C83.246262,310.122833 83.812607,308.807190 82.856598,307.586121 
	C78.903763,302.537384 74.923790,297.509857 70.983437,292.512146 
	C68.352028,293.956329 68.170319,296.306885 67.536217,298.282440 
	C64.644447,307.291962 67.169037,315.749847 70.734268,323.926788 
	C73.594635,330.487091 76.870926,336.865509 79.333580,344.467438 
M98.989960,346.081177 
	C102.634888,342.677917 106.850655,342.188324 111.543800,343.363647 
	C118.089386,345.002838 123.439804,348.544312 127.782379,353.541138 
	C131.320801,357.612610 134.318192,354.726959 137.516571,353.256500 
	C141.257111,351.536682 138.937027,349.356995 138.119705,347.112000 
	C134.464767,337.072754 133.639420,327.286438 141.314255,318.494354 
	C146.488647,312.566711 153.554947,310.673035 160.908615,309.751617 
	C164.198196,309.339386 165.546158,308.069122 165.700790,304.758209 
	C166.297546,291.981598 163.547302,279.987976 157.811096,268.608185 
	C155.155380,263.339630 151.343140,259.257690 145.733276,257.283844 
	C140.137802,255.315048 134.411728,253.717499 128.528152,251.890503 
	C125.910362,257.450684 124.665268,263.624817 120.842903,268.571198 
	C118.776649,271.245056 119.240868,272.674713 122.609772,273.959106 
	C129.283157,276.503326 134.689804,280.961823 138.890808,286.747437 
	C146.497177,297.222870 145.406982,308.621368 135.673431,317.119354 
	C126.343094,325.265289 115.622345,326.998016 103.980606,322.785248 
	C97.870110,320.574066 92.631859,316.812134 87.597641,312.486511 
	C83.652718,322.465668 88.107262,340.798615 95.363220,346.469482 
	C96.445610,347.315369 97.423378,347.445709 98.989960,346.081177 
M316.444519,209.004974 
	C317.341461,206.585693 317.358185,204.415726 316.152161,201.870773 
	C314.299500,197.961441 313.349335,193.651810 313.925110,189.234482 
	C316.105896,172.503357 332.427460,159.309143 350.600708,167.580322 
	C352.081970,168.254486 353.890015,169.426132 355.155762,167.687881 
	C357.907715,163.908752 360.362915,159.913559 363.326599,155.419571 
	C354.724182,155.454086 346.951141,153.633575 342.195770,148.153900 
	C335.755646,140.732880 329.706970,141.368210 322.076813,144.850220 
	C319.551880,146.002487 317.891022,146.971039 317.269043,149.771591 
	C315.679352,156.929169 312.192322,163.233490 307.081482,168.374512 
	C302.906464,172.574173 298.481415,176.256149 301.057709,183.097916 
	C301.311829,183.772781 300.883057,184.728470 300.704468,185.539093 
	C297.568268,199.774170 288.251709,209.013474 276.155334,216.076630 
	C271.008575,219.081879 265.275330,220.693893 259.071716,222.960495 
	C264.730164,228.059753 270.788971,229.822357 277.247009,230.863251 
	C280.105072,231.323898 281.608398,230.510101 283.341827,228.085907 
	C290.091827,218.646210 298.893524,212.660645 311.130432,213.582382 
	C314.112122,213.806976 315.264282,211.993896 316.444519,209.004974 
M377.202148,293.739258 
	C378.639954,296.825256 379.866455,294.208466 380.891266,293.468597 
	C387.363770,288.795776 392.074554,282.528198 395.863037,275.654022 
	C405.899414,257.442932 404.637878,239.168976 395.835022,220.294952 
	C391.688385,223.308853 387.729309,225.281036 386.279449,230.353882 
	C381.700012,246.376923 369.457733,250.881119 354.986816,242.352829 
	C352.226013,240.725800 350.295868,237.810791 346.399963,236.658661 
	C346.399963,243.796570 346.399963,250.375061 346.399963,257.339508 
	C352.611267,259.547821 359.019135,262.090546 364.176880,267.143188 
	C371.527374,274.343872 375.009857,283.305573 377.202148,293.739258 
M369.656555,304.549469 
	C360.380737,308.729889 350.810852,310.551880 340.546661,309.395081 
	C327.469574,307.921295 316.639160,300.283386 313.410095,288.460785 
	C312.143280,283.822693 308.846252,284.472107 305.870483,283.610931 
	C302.871582,282.743103 300.860870,283.737000 299.248291,286.454437 
	C296.841339,290.510406 293.553802,293.876343 289.545441,296.374908 
	C287.174744,297.852661 287.095245,299.321533 288.151520,301.747284 
	C291.722626,309.948364 292.556091,318.439728 289.824188,327.078094 
	C288.813843,330.272736 289.324188,332.411255 292.674683,333.894775 
	C296.333954,335.514923 297.036560,332.785065 298.111725,330.659607 
	C301.115204,324.721863 305.235413,319.780487 310.923279,316.304504 
	C324.979828,307.714264 341.813660,314.915405 343.976562,330.324585 
	C344.444305,333.656830 343.298218,336.787292 342.652985,340.089050 
	C362.597626,337.993774 372.056702,321.584625 373.325592,305.676453 
	C373.549072,302.875153 371.706329,303.931732 369.656555,304.549469 
M140.195343,141.364273 
	C142.173203,150.632507 147.027679,157.552505 156.305328,161.772858 
	C160.695312,140.604889 173.209946,131.089066 194.029877,133.074081 
	C195.241043,131.613251 194.900940,130.053085 194.608475,128.643539 
	C191.294510,112.670891 180.792374,104.094147 165.753845,100.444679 
	C163.980042,100.014229 162.515457,100.461403 161.473801,102.133850 
	C157.477692,108.549965 151.830109,113.548523 146.876953,119.149673 
	C141.516235,125.211716 138.011734,132.046753 140.195343,141.364273 
M273.442566,136.134750 
	C273.392883,138.797989 273.496857,141.474686 273.265106,144.121994 
	C272.527710,152.546036 269.201721,159.506393 261.578094,163.875458 
	C257.853546,166.009964 253.647141,166.201614 249.537613,166.804276 
	C247.794922,167.059860 246.055817,167.050079 245.219727,169.391174 
	C242.224213,177.778687 243.471100,180.295044 252.012741,182.121384 
	C253.146774,182.363861 254.316849,182.443710 255.444717,182.707825 
	C259.115356,183.567459 261.940247,182.747757 264.785828,179.894592 
	C267.918976,176.753067 271.723633,174.127518 275.600006,171.915497 
	C282.107117,168.202255 288.923187,165.419357 296.174011,170.454544 
	C297.861786,171.626572 299.218903,171.015900 300.555756,169.646301 
	C305.963654,164.105957 310.425354,158.008026 313.066833,150.608871 
	C314.278198,147.215576 312.931702,145.917114 309.945007,145.424957 
	C302.729218,144.235855 296.922089,140.607849 292.105194,135.248001 
	C291.315521,134.369278 290.575592,133.188171 289.320587,133.399078 
	C284.154419,134.267319 278.780334,133.455292 273.442566,136.134750 
M242.342072,107.287987 
	C247.520157,109.913879 253.856628,109.548561 258.509918,113.502510 
	C261.012878,115.629272 263.042145,115.111183 265.510803,113.126076 
	C270.766693,108.899696 276.647644,105.896370 283.580383,105.370529 
	C285.357605,105.235725 287.349640,104.966911 288.303223,103.050613 
	C292.959229,93.694138 300.835754,88.688530 310.696014,86.270683 
	C314.018494,85.455971 314.285126,83.514565 312.811523,80.640976 
	C307.535278,70.351898 299.125702,65.145203 287.663086,64.477982 
	C284.907623,64.317596 283.791077,65.452293 283.195618,67.962151 
	C282.026367,72.890266 279.683014,77.266434 276.499237,81.222038 
	C267.913696,91.889030 256.212128,96.487244 243.131317,98.212265 
	C239.598663,98.678139 238.776627,100.052589 240.173630,103.129768 
	C240.722260,104.338249 241.265442,105.549202 242.342072,107.287987 
M223.813934,366.493927 
	C218.945038,366.223022 214.076965,365.416382 209.970016,362.844574 
	C206.489731,360.665192 203.826630,360.376678 200.858047,363.358612 
	C198.693054,365.533325 194.422226,364.982178 193.398163,368.617554 
	C190.889893,377.521881 186.901016,385.618866 180.418655,392.626984 
	C187.771912,402.353699 196.432541,408.515198 208.973343,406.663025 
	C215.261505,405.734344 221.113754,403.307648 226.899460,400.761566 
	C229.082275,399.801025 229.577759,398.355103 228.998627,395.952362 
	C227.243607,388.671204 226.470306,381.257355 226.549454,373.743622 
	C226.574982,371.320496 226.708176,368.688324 223.813934,366.493927 
M341.105408,305.565125 
	C350.788818,306.724518 359.967896,304.873840 368.779510,300.892090 
	C370.925140,299.922577 372.837799,298.934998 372.988831,295.973999 
	C373.652466,282.963898 361.253571,265.702972 348.803894,262.351959 
	C346.009796,261.599884 344.665710,262.321228 343.514160,265.027252 
	C339.401611,274.691254 332.056091,280.702148 321.883423,283.318146 
	C320.178802,283.756531 318.263245,283.857941 317.030243,285.365906 
	C316.851624,287.718719 317.639923,289.667847 318.745178,291.581329 
	C323.545654,299.892151 331.279999,303.590485 341.105408,305.565125 
M95.805107,313.687286 
	C104.157066,319.758820 113.218033,322.652618 123.500748,319.663269 
	C136.619553,315.849487 142.819794,303.875702 137.452164,292.728424 
	C133.614471,284.758453 126.963287,280.050812 118.923546,276.953796 
	C116.770798,276.124542 115.034187,276.412628 113.513016,278.091614 
	C106.819199,285.479767 98.869675,291.677582 93.145233,299.997894 
	C87.853615,307.689148 87.736656,307.608673 95.805107,313.687286 
M170.537018,215.880951 
	C162.077332,226.047379 152.107773,224.228683 141.819672,219.055664 
	C140.703659,229.617340 157.716919,254.937958 167.886566,258.299377 
	C169.560471,256.792725 169.876373,254.542709 170.828430,252.640198 
	C174.845901,244.611938 184.317825,237.959976 191.410416,239.210892 
	C196.054840,240.030029 198.772903,238.516464 201.743622,235.283691 
	C209.500061,226.843018 221.434189,227.433792 228.777191,236.253326 
	C229.778763,237.456299 230.304779,239.199524 232.377960,239.569199 
	C232.377960,236.334610 232.617310,233.198318 232.281021,230.124985 
	C232.102249,228.491150 232.188049,225.590134 229.988724,225.637039 
	C223.308594,225.779556 216.830368,221.648148 209.856522,227.619736 
	C199.662308,236.348923 181.585480,231.865143 180.211929,218.428574 
	C179.831696,214.709045 175.763168,213.670135 170.537018,215.880951 
M258.339478,378.656464 
	C253.070114,388.464569 244.645752,395.134155 235.543503,400.904053 
	C240.694641,411.272064 249.490479,413.599884 259.982513,407.740051 
	C275.961090,398.815979 285.113159,385.044220 289.048462,367.374969 
	C289.828400,363.872986 289.079285,362.302124 285.654846,361.919250 
	C279.662354,361.249298 273.963135,359.660797 268.470428,357.101807 
	C264.995209,355.482758 263.445953,357.566376 263.386963,360.838379 
	C263.276245,366.977051 261.258636,372.553223 258.339478,378.656464 
M226.167084,115.589195 
	C219.060822,119.221268 215.485092,125.556900 213.813477,132.897446 
	C212.857681,137.094543 211.532928,141.821609 216.026245,145.328766 
	C221.436630,149.551697 226.281769,154.241699 229.688278,160.380585 
	C231.976212,164.503693 236.288422,162.498703 239.733246,162.567215 
	C242.697388,162.626175 242.557648,159.760544 243.035751,157.749619 
	C245.270462,148.350189 247.655121,138.996521 251.858765,130.239227 
	C252.928711,128.010254 252.431931,126.583855 250.519348,125.133949 
	C247.188293,122.608734 243.958023,119.777550 242.073349,116.049477 
	C240.010071,111.968086 236.913376,111.738121 233.298813,112.700195 
	C231.070999,113.293152 228.970291,114.363693 226.167084,115.589195 
M61.615540,249.077896 
	C60.808456,255.335144 62.274269,261.292419 63.890617,267.258148 
	C64.832771,270.735535 66.648972,271.322968 69.815170,269.921600 
	C75.365623,267.464966 80.446365,264.222321 84.806183,260.117523 
	C93.535316,251.899033 98.941994,242.121689 97.685326,229.557907 
	C96.914528,221.851776 91.718575,217.261520 84.660141,218.645081 
	C80.722176,219.416962 77.074249,220.992218 73.962212,223.736084 
	C66.556625,230.265594 63.215122,238.758011 61.615540,249.077896 
M169.375626,182.130737 
	C174.140747,186.331757 179.850372,188.368713 185.940125,189.828583 
	C188.831772,190.521790 190.451111,189.969681 192.229019,187.603226 
	C198.180618,179.681503 204.983017,172.627930 214.157471,168.337585 
	C216.666153,167.164398 217.055328,165.625381 215.698730,163.150009 
	C213.464005,159.072357 211.406006,154.906616 210.498962,150.241440 
	C209.272034,143.931305 206.299728,141.405914 199.106003,140.325531 
	C194.060577,159.348984 180.367599,167.284760 161.016891,167.964066 
	C163.354782,173.488068 164.936508,178.208054 169.375626,182.130737 
M341.294861,133.734482 
	C340.069336,135.227737 337.944305,136.015182 337.657623,138.425735 
	C343.926239,146.356232 352.028107,150.940750 362.241821,151.660385 
	C364.814606,151.841660 367.289673,151.733414 368.925354,149.320129 
	C371.723175,145.192169 374.716064,141.093170 375.633423,136.081100 
	C378.085297,122.684532 373.421326,111.298302 365.204559,101.057617 
	C363.905762,99.438942 362.559509,97.116974 360.132751,97.557014 
	C357.575562,98.020721 357.632019,100.737221 357.015961,102.749649 
	C353.644867,113.761337 349.763062,124.519035 341.294861,133.734482 
M110.755722,136.281403 
	C115.915459,130.341019 118.779770,123.573006 117.106644,115.655052 
	C114.377563,102.739983 102.460632,94.643021 87.903839,95.227669 
	C84.874512,95.349350 83.401443,96.320839 82.947975,99.412033 
	C81.283516,110.758347 82.668716,121.677773 87.957275,131.829483 
	C93.537277,142.540634 100.248909,143.849304 110.755722,136.281403 
M129.376816,245.642914 
	C129.627686,247.712250 131.492004,248.031799 132.886597,248.809326 
	C136.414536,250.776260 140.307632,251.768295 144.196411,252.632935 
	C151.900879,254.345993 157.343491,258.938416 160.860840,265.763062 
	C162.984406,269.883392 164.646561,274.259369 166.287628,278.606689 
	C169.401489,286.855652 169.569565,295.492126 169.384628,304.167206 
	C169.348343,305.869812 168.789246,308.587494 171.425369,308.445282 
	C178.327454,308.072906 185.151688,307.017578 191.891479,301.816956 
	C176.655258,298.313873 169.295959,288.185211 168.511887,274.623535 
	C167.999847,265.767181 163.503082,261.358856 157.894974,255.977905 
	C147.113937,245.633606 138.111450,233.890335 137.610962,217.872009 
	C137.555161,216.086395 136.713394,214.681992 135.565598,213.444839 
	C130.403915,207.881302 126.695671,201.447021 123.832062,194.450684 
	C122.982674,192.375473 122.362831,190.034454 120.333946,188.635971 
	C113.088013,193.777008 112.660561,196.258484 117.754303,202.516098 
	C118.905945,203.930862 119.943329,205.452591 120.909073,207.002502 
	C128.143143,218.612289 130.243515,231.375275 129.376816,245.642914 
M162.279800,367.333160 
	C161.536072,365.889526 160.202393,365.212921 158.771240,364.706848 
	C154.178513,363.082825 149.822739,360.946289 146.298431,357.574371 
	C142.110077,353.567108 138.668457,357.045197 135.612076,358.841125 
	C132.445953,360.701508 135.482544,363.300690 136.474823,365.278931 
	C141.707764,375.711700 142.247574,385.960754 135.826889,396.108582 
	C135.286987,396.961914 134.796692,397.829803 135.157745,398.887878 
	C145.591904,404.899689 162.582901,402.058777 172.783997,394.259705 
	C174.877213,392.659363 173.940155,391.230621 172.843521,389.578674 
	C168.399231,382.884003 165.083542,375.640106 162.279800,367.333160 
M221.099152,23.682318 
	C217.626968,24.714708 213.615982,23.593554 210.056747,26.273500 
	C217.377335,29.868681 224.445557,33.246807 227.787094,40.775352 
	C231.272751,48.628555 229.879288,55.922920 223.647171,62.036377 
	C226.674393,64.050400 229.446304,63.324028 232.025894,63.755707 
	C237.261948,64.631927 240.519409,62.825943 243.361435,58.147980 
	C248.447311,49.776638 256.361755,44.474060 265.375122,40.833824 
	C266.729431,40.286858 268.320374,40.168175 268.933990,38.525703 
	C260.597748,28.548681 241.958908,22.602207 221.099152,23.682318 
M219.191406,300.003601 
	C212.710999,302.153625 206.204926,304.130310 199.228821,303.157745 
	C197.627731,302.934509 196.306183,303.550842 195.137390,304.607239 
	C189.535400,309.670349 182.480011,311.382599 175.385757,312.069092 
	C170.409164,312.550690 167.626770,314.051849 167.138275,319.178986 
	C166.971329,320.931335 166.237289,322.629639 165.725708,324.485535 
	C184.612045,320.232880 192.341782,331.923737 194.488113,344.700958 
	C195.416855,350.229736 194.806564,355.812042 195.253143,361.480408 
	C201.796371,358.883118 202.056259,358.476685 199.178452,353.237091 
	C194.815536,345.293610 195.521042,337.621307 199.954483,330.010193 
	C204.527267,322.159912 211.106369,316.351013 219.872635,314.473358 
	C225.774796,313.209198 227.588837,309.686890 229.261673,304.792053 
	C226.043839,303.232147 222.941116,301.728027 219.191406,300.003601 
M291.043427,40.595253 
	C286.899109,40.158718 282.842773,40.431519 278.471008,41.985374 
	C280.971130,46.781815 283.004883,51.475990 283.692688,56.580288 
	C284.095703,59.571545 285.516052,60.642178 288.616730,60.786068 
	C298.550018,61.247055 306.930573,64.934830 313.070068,73.189064 
	C315.373871,76.286369 316.637604,79.900360 318.817871,83.428314 
	C324.481873,81.863739 328.277374,78.594788 329.697540,72.921928 
	C331.802338,64.514503 327.314117,55.639313 318.086182,49.545803 
	C310.133881,44.294659 301.380188,41.468319 291.043427,40.595253 
M265.321564,259.282257 
	C261.596924,257.417938 259.698120,253.235901 255.583145,251.404648 
	C248.419693,260.156342 246.599945,270.128998 247.218460,280.929230 
	C247.440887,284.813171 248.550018,285.738831 252.395721,284.689911 
	C261.952057,282.083313 270.847351,283.813873 278.679169,290.022308 
	C285.414337,295.361450 285.482269,295.431274 291.769806,289.254944 
	C293.064178,287.983490 294.250854,286.571167 295.305267,285.093933 
	C296.932617,282.814148 296.751038,280.974243 294.037933,279.414490 
	C290.147491,277.177826 286.293182,274.728943 283.776001,270.880920 
	C281.853333,267.941742 279.342987,266.028046 276.062042,264.947205 
	C272.405151,263.742493 269.100006,261.833374 265.321564,259.282257 
M234.674698,77.547554 
	C235.419815,74.673332 236.164948,71.799118 236.943375,68.796387 
	C232.519363,66.262856 227.604065,67.896820 223.168259,66.515259 
	C216.166763,64.334610 209.384888,66.009354 202.685867,68.209259 
	C194.653870,70.846909 191.939102,77.895164 196.250732,85.174622 
	C198.653000,89.230423 202.312698,91.732475 206.771881,93.068222 
	C214.345215,95.336815 222.141846,95.642097 229.977707,95.687210 
	C232.767075,95.703262 233.784317,94.572319 233.745590,91.792984 
	C233.683289,87.320702 233.170120,82.794884 234.674698,77.547554 
M256.336182,196.811279 
	C253.964142,201.035675 252.346970,205.549713 250.839218,210.147781 
	C249.633774,213.823944 252.238342,215.718231 253.870972,218.040253 
	C255.521896,220.388290 257.743866,219.068710 259.763214,218.427505 
	C261.188812,217.974854 262.618317,217.526840 264.018219,217.002350 
	C276.482513,212.332458 287.296051,205.526459 293.794830,193.384720 
	C296.214478,188.864059 297.948517,184.112625 295.871552,178.298096 
	C287.540222,182.719208 279.089294,186.436615 270.172058,186.691986 
	C262.797974,186.903152 259.502716,190.627182 256.336182,196.811279 
M369.605621,181.927277 
	C376.747406,192.873337 384.908173,202.904602 395.806000,210.994995 
	C400.586639,201.012634 402.074799,190.694824 400.121857,179.915970 
	C399.460510,176.265823 397.117584,173.442215 393.887421,171.864517 
	C382.489899,166.297684 370.912109,167.703735 359.419922,170.755142 
	C362.857971,174.541809 365.980591,177.981049 369.605621,181.927277 
M240.137909,306.953247 
	C233.136948,305.418915 232.239456,306.004150 230.978027,313.299561 
	C239.162811,314.321350 243.709900,319.626007 246.507996,326.950378 
	C246.956314,328.123932 247.864883,329.455536 248.927551,330.006775 
	C256.283600,333.822479 259.935059,340.241699 262.386810,347.802216 
	C263.743958,351.987366 265.982819,352.400818 269.573700,349.591858 
	C273.929016,346.184875 277.515228,342.041351 280.805084,337.598297 
	C283.034698,334.587128 282.461884,332.845825 279.233826,330.971313 
	C272.734772,327.197540 266.084229,323.118744 261.844543,316.932281 
	C256.563324,309.226013 249.762466,306.453064 240.137909,306.953247 
M77.200630,156.330536 
	C76.030388,156.596451 74.433472,155.831497 73.709961,158.237167 
	C81.720421,164.387207 84.238060,173.224579 84.019798,183.412918 
	C89.899086,184.858963 95.604729,186.533386 101.118294,188.886444 
	C104.250641,190.223267 106.711258,194.610748 110.138802,193.035492 
	C113.029938,191.706772 114.804291,188.011887 117.175064,185.459152 
	C118.299263,184.248688 118.896858,183.153259 118.139999,181.476746 
	C114.893456,174.285324 111.123215,167.541321 104.632187,162.624741 
	C96.648872,156.577866 87.489059,155.928741 77.200630,156.330536 
M324.135559,209.453430 
	C326.195251,219.880692 336.858521,220.379501 343.051636,226.993134 
	C345.218658,221.232986 345.762482,215.823410 348.804504,211.657700 
	C352.679840,206.350937 348.563385,201.393219 348.926910,196.297455 
	C349.115906,193.648758 349.026825,190.968231 349.386047,188.346298 
	C350.045624,183.531738 350.944000,178.749893 351.850250,173.309570 
	C338.914185,180.087097 327.701904,187.483994 323.133820,201.716141 
	C322.306763,204.292862 322.138733,206.557404 324.135559,209.453430 
M176.734024,364.745087 
	C179.724243,364.741852 182.717682,364.650330 185.703812,364.759125 
	C188.981628,364.878601 190.740646,363.554199 190.710754,360.149231 
	C190.667023,355.169006 191.140335,350.125946 190.510376,345.223114 
	C189.607498,338.196198 186.393661,332.239868 179.758133,328.805878 
	C172.740631,325.174225 165.476395,328.362000 163.223969,335.927094 
	C161.308304,342.361115 162.576935,348.758209 163.361298,355.164368 
	C164.289536,362.745697 164.852097,363.341797 172.329132,364.483795 
	C173.473724,364.658661 174.646576,364.648651 176.734024,364.745087 
M156.645111,185.824203 
	C147.630783,178.055328 130.634918,178.671097 124.363922,185.960373 
	C128.678406,194.642288 131.916748,204.108124 139.462036,211.587845 
	C144.035278,208.243210 148.729752,205.855408 154.373596,206.791306 
	C157.316162,207.279266 160.267395,207.722687 163.196854,208.280136 
	C168.035309,209.200851 168.895004,208.276169 167.993744,203.567032 
	C166.617462,196.375793 163.089325,190.605972 156.645111,185.824203 
M216.746902,60.678463 
	C224.513824,56.930824 227.549683,50.631058 224.660995,43.846752 
	C220.720413,34.591927 212.403641,31.214741 203.595718,28.716921 
	C202.525253,28.413357 200.990479,29.141142 199.864136,29.749023 
	C195.716873,31.987286 192.136444,34.980228 189.337616,38.774441 
	C185.519745,43.950089 186.364594,49.486851 191.603378,53.053230 
	C198.922211,58.035622 207.124390,60.441216 216.746902,60.678463 
M294.573517,242.793381 
	C300.266510,246.966324 303.129456,253.105316 305.408844,259.694489 
	C310.487610,257.928192 313.718262,254.786346 316.549164,251.378769 
	C323.277588,243.279663 327.177826,234.219482 325.239441,223.331146 
	C324.703827,220.322540 322.868561,219.269913 320.258423,218.602982 
	C318.012817,218.029190 316.482544,218.572723 315.156708,220.509659 
	C308.930908,229.604904 299.625244,233.001984 289.232086,234.374710 
	C287.208130,234.642044 284.955841,234.569351 283.258240,236.947495 
	C287.010834,238.839981 290.497650,240.598434 294.573517,242.793381 
M231.090973,285.442444 
	C228.309341,289.276367 225.527725,293.110321 222.731384,296.964539 
	C230.587997,301.602173 230.580048,301.594574 236.423233,295.481903 
	C237.573029,294.279083 238.652878,292.903809 240.037903,292.051544 
	C243.924820,289.659698 244.281250,286.269196 243.603409,282.203461 
	C241.608063,270.235168 244.836151,259.491150 251.701126,249.708008 
	C252.586563,248.446167 253.728485,247.300552 252.677704,245.712006 
	C249.019638,240.181885 247.438599,233.883728 245.854675,227.584198 
	C245.155258,224.802505 242.923004,225.308502 241.005905,225.342880 
	C239.272461,225.373962 236.569641,224.740204 236.399536,227.107590 
	C235.902588,234.023743 234.427170,241.382309 236.121384,247.836060 
	C239.607956,261.117371 237.995422,273.104462 231.090973,285.442444 
M248.706284,93.184052 
	C264.942261,89.579521 277.424347,78.304527 279.334076,64.941010 
	C270.023682,65.957039 260.874420,67.023003 251.710098,67.938194 
	C240.678528,69.039864 239.510361,70.152924 238.338379,81.450653 
	C238.235748,82.439926 238.217743,83.438217 238.167938,84.432693 
	C237.647736,94.819870 237.648148,94.819893 248.706284,93.184052 
M132.407532,366.052246 
	C131.072311,362.271576 128.672546,360.831970 124.438148,361.069153 
	C116.742844,361.500244 109.242523,360.133881 102.297531,356.471680 
	C101.499687,356.050964 100.547554,355.292480 99.497795,356.541656 
	C99.529739,357.054077 99.401131,357.770874 99.635094,358.338165 
	C105.653450,372.931030 115.240692,384.840149 127.199791,394.976715 
	C129.701248,397.096893 131.196747,396.213379 132.685989,393.731110 
	C138.096085,384.713440 137.446732,375.748993 132.407532,366.052246 
M335.965210,226.593216 
	C334.083801,225.131149 332.348907,223.360764 329.467133,223.259003 
	C330.903198,237.980713 325.899231,250.241516 314.488861,258.513977 
	C308.098816,263.146729 304.653503,267.837952 304.003143,275.453644 
	C303.770203,278.181488 303.976776,279.362274 306.627747,280.142059 
	C310.310028,281.225220 312.451752,280.538910 313.758759,276.502014 
	C317.559601,264.762665 326.350098,257.977600 338.366760,257.379181 
	C340.788177,257.258606 341.404266,256.379913 341.912720,254.303177 
	C343.083801,249.519775 342.213501,244.664841 342.733246,239.896103 
	C343.357849,234.165619 341.762299,229.792236 335.965210,226.593216 
M67.749031,183.747299 
	C70.070938,183.644165 72.391975,183.485718 74.714928,183.449646 
	C79.233597,183.379440 80.144638,180.797470 79.655289,176.872543 
	C78.726036,169.419418 74.399155,164.133896 68.959045,159.503647 
	C67.519096,158.278046 66.029900,158.443787 64.322655,159.127426 
	C57.697495,161.780350 51.794056,165.531067 47.735889,171.427963 
	C43.255085,177.938980 40.991322,185.137482 43.064690,193.962326 
	C50.798210,188.755310 58.270119,184.887604 67.749031,183.747299 
M323.124817,341.273590 
	C326.774261,341.381653 330.423737,341.489349 334.073181,341.598022 
	C335.855865,341.651062 337.272614,341.114380 338.249390,339.464050 
	C343.318512,330.899384 337.124634,318.436951 327.228088,317.202423 
	C314.968964,315.673126 307.628082,322.385010 301.833435,331.974945 
	C299.897491,335.178894 300.123718,336.977997 304.094818,338.032166 
	C310.061462,339.616211 316.088531,340.648743 323.124817,341.273590 
M328.790070,106.467201 
	C325.884491,116.634407 328.592773,125.631851 334.303802,134.424301 
	C338.688263,131.602615 341.291473,127.799622 343.807312,123.912819 
	C349.295715,115.433594 351.792542,105.724121 355.145111,96.366508 
	C356.308838,93.118248 353.972443,92.745567 351.775848,92.324608 
	C341.584259,90.371468 333.698669,95.043243 328.790070,106.467201 
M233.574997,317.731659 
	C229.525513,316.318085 227.441864,318.128937 226.097122,321.884949 
	C221.680054,334.222229 217.095612,346.498444 208.576172,356.996521 
	C212.171890,360.544037 216.659195,361.024658 220.942978,362.149750 
	C224.787857,363.159546 226.263275,362.064514 226.850708,358.044006 
	C228.218369,348.683502 231.174927,339.909241 238.725601,333.471863 
	C243.150589,329.699341 243.413757,328.172974 240.149536,323.290222 
	C238.645554,321.040527 236.718369,319.235596 233.574997,317.731659 
M208.939407,176.450989 
	C203.596527,180.155045 199.215225,184.738235 195.181671,190.932724 
	C205.484421,193.615738 214.372162,197.773697 222.396515,204.062088 
	C226.088486,197.352081 228.309265,191.111664 229.490265,184.558670 
	C229.916306,182.194748 230.532074,179.522583 229.089310,177.241531 
	C225.073517,170.892502 219.107147,169.658752 212.800613,173.765503 
	C211.686508,174.490997 210.623459,175.294922 208.939407,176.450989 
M247.337128,386.836243 
	C253.964523,379.462494 258.719177,371.265228 259.498047,360.395660 
	C253.049789,362.132172 247.541382,363.970734 241.888901,365.065338 
	C229.320969,367.499207 228.373840,368.425903 230.617310,381.225220 
	C231.505630,386.293182 230.977951,391.804352 234.147964,396.573059 
	C239.238052,394.277374 242.979233,390.727936 247.337128,386.836243 
M158.026001,78.549522 
	C154.070816,70.115967 147.567719,64.514343 138.836426,61.483727 
	C136.610443,60.711098 134.227875,60.060459 133.262314,63.430870 
	C131.177750,70.707207 131.192291,77.735695 136.772873,83.490929 
	C142.850235,89.758514 150.616455,92.850166 159.022949,94.369034 
	C161.361588,89.280983 161.299454,88.193298 158.026001,78.549522 
M178.264603,269.449310 
	C176.146408,269.215668 174.482849,267.344818 171.776993,267.726349 
	C171.279251,271.541962 172.354111,275.158691 173.155334,278.781860 
	C175.423721,289.039948 182.813583,296.098083 193.005081,298.057068 
	C194.643585,298.372040 196.003342,298.471741 197.021896,297.096680 
	C199.188202,294.172211 202.133423,291.585419 203.020020,288.036804 
	C203.649323,285.517883 200.584534,283.925140 199.667419,281.630798 
	C199.053314,280.094482 198.033051,278.714844 197.469788,277.165100 
	C196.433365,274.313416 194.454346,273.042206 191.506439,272.765747 
	C187.201965,272.362030 182.977371,271.514191 178.264603,269.449310 
M161.447296,161.993607 
	C162.953888,164.757202 165.664612,163.910172 167.699112,163.550217 
	C179.914215,161.389099 189.496994,155.631729 193.835251,143.243912 
	C195.523300,138.423721 194.905914,137.100220 189.872284,136.727219 
	C173.546158,135.517426 160.843597,149.502716 161.447296,161.993607 
M351.153717,234.329224 
	C354.714783,237.654236 358.725861,240.282639 363.371185,241.791031 
	C372.447632,244.738327 381.133606,238.714813 382.036591,228.279892 
	C369.585327,228.798096 360.543213,222.409332 353.338013,212.525848 
	C349.958862,217.066605 349.100159,221.571320 347.982697,226.077972 
	C347.129272,229.519562 347.894989,231.881866 351.153717,234.329224 
M203.073242,217.226440 
	C213.396500,220.159409 213.478912,220.091644 218.854736,210.977707 
	C220.197067,208.701996 219.655075,207.004333 217.535934,205.460403 
	C211.297363,200.915268 204.440948,197.707092 197.034058,195.623474 
	C193.882187,194.736847 191.555771,195.546707 190.171722,198.727432 
	C188.784912,201.914490 187.110123,204.978165 185.770462,208.183228 
	C184.551910,211.098618 184.998474,213.301270 188.694427,214.006104 
	C193.240921,214.873184 197.738617,215.996124 203.073242,217.226440 
M216.041580,293.204193 
	C217.292007,294.307648 218.439285,294.775330 219.907669,293.338837 
	C228.127686,285.297455 237.912872,267.457123 232.776596,252.788620 
	C229.485031,257.199982 226.706512,262.244324 221.996185,264.411255 
	C215.398621,267.446381 212.959290,272.288300 211.161896,278.896240 
	C208.813583,287.529602 207.468170,286.412994 216.041580,293.204193 
M209.648529,251.044693 
	C212.101852,255.029816 212.689178,259.681580 214.027573,264.427277 
	C221.801498,261.047028 226.518829,255.239883 230.176605,248.366425 
	C230.865005,247.072815 230.627213,245.781921 229.872498,244.571274 
	C227.840652,241.312073 225.762497,238.096466 222.523956,235.847412 
	C215.054550,230.660187 205.651596,233.565445 202.047775,242.287766 
	C204.479996,244.924149 207.533020,247.091614 209.648529,251.044693 
M81.275002,299.212616 
	C82.510246,300.690735 83.071922,302.850098 85.718063,303.382324 
	C92.471748,292.954071 101.281593,284.110931 110.808701,275.119568 
	C99.485306,272.961121 88.525322,275.559296 79.561775,282.037354 
	C72.329338,287.264313 72.314919,287.358704 77.570175,294.253815 
	C78.679802,295.709686 79.777901,297.174286 81.275002,299.212616 
M269.408051,138.194565 
	C268.524841,130.802887 261.570190,132.457932 257.139038,129.234665 
	C251.542282,140.018143 248.478012,150.803665 246.616760,162.416946 
	C249.050003,162.416946 250.886459,162.690338 252.614212,162.372604 
	C263.863373,160.303894 269.789185,152.052979 269.408051,138.194565 
M148.607651,345.070160 
	C156.641037,336.131226 161.954910,325.888733 164.018356,313.889618 
	C145.905167,313.108948 135.692825,326.808624 141.219437,343.843781 
	C142.923691,349.096924 143.896149,349.343842 148.607651,345.070160 
M234.324783,181.482529 
	C232.905090,186.763702 232.091721,192.311646 229.914597,197.259552 
	C227.094025,203.669907 224.952499,209.476959 231.047562,215.128021 
	C231.731873,215.762482 231.965637,216.884537 232.403580,217.782806 
	C234.148743,221.362152 238.876022,223.131882 243.331268,221.485153 
	C247.359711,219.996201 245.241196,216.426849 245.465927,213.695358 
	C245.516479,213.080917 245.165665,212.401917 244.898056,211.797623 
	C241.260956,203.584274 240.233704,194.840454 239.714874,186.009613 
	C239.526489,182.803238 238.082855,181.086441 234.324783,181.482529 
M52.469120,192.982132 
	C50.477657,194.179230 48.430706,195.295029 46.514565,196.602509 
	C45.271832,197.450500 44.315304,198.503525 44.842079,200.358200 
	C46.492485,206.168930 56.038986,211.653961 61.398888,209.083466 
	C70.257576,204.835022 74.900810,196.983597 78.237198,187.598526 
	C68.836395,186.594757 60.803711,188.725174 52.469120,192.982132 
M231.668289,354.122101 
	C231.250244,356.536346 230.832199,358.950592 230.283234,362.120911 
	C240.165497,361.768250 249.168793,360.172363 257.640869,356.074982 
	C260.298767,354.789490 259.669342,352.955414 257.866486,351.360107 
	C253.459625,347.460724 249.946747,342.851776 246.912964,337.848969 
	C245.016159,334.721069 242.935638,334.901489 240.497955,337.301788 
	C235.952621,341.777405 233.473434,347.317505 231.668289,354.122101 
M253.390381,52.892117 
	C249.631027,55.844643 247.041138,59.648014 244.113022,64.231384 
	C248.751160,64.007942 252.240112,63.991245 255.694183,63.635670 
	C260.150330,63.176933 264.575958,62.427223 269.019348,61.837769 
	C281.191345,60.223061 282.173340,58.245338 276.313141,47.055313 
	C276.004791,46.466515 275.604523,45.924210 275.316071,45.326935 
	C274.144714,42.901630 272.324799,42.497612 269.943268,43.443409 
	C264.200287,45.724163 258.666992,48.362480 253.390381,52.892117 
M271.193268,320.300079 
	C275.399292,323.673065 279.410339,327.358276 284.695892,329.363708 
	C288.546356,320.816406 288.375824,312.771515 285.053833,304.723297 
	C284.375610,303.080109 283.657806,300.727905 281.286102,301.697174 
	C274.381531,304.519012 267.015442,305.745972 259.465393,307.823883 
	C262.757141,312.808838 266.604248,316.415924 271.193268,320.300079 
M305.145386,358.695618 
	C315.894867,357.206696 326.116241,354.533264 335.110687,345.316498 
	C321.929352,345.855530 310.349731,344.350250 299.188110,340.619171 
	C297.011261,343.444855 296.864899,346.496918 296.287445,349.375061 
	C294.308685,359.237640 294.340759,359.244080 305.145386,358.695618 
M360.533783,214.970673 
	C364.620483,218.946548 369.080017,222.337631 374.791138,223.593384 
	C381.730743,225.119232 383.792877,223.193268 382.529846,216.303802 
	C382.053741,213.706940 381.358337,211.133438 380.551086,208.617264 
	C378.152863,201.141846 374.775543,199.367493 367.144562,201.643661 
	C365.264465,202.204453 363.486023,203.180557 361.746002,204.122925 
	C355.476349,207.518448 355.252563,208.997543 360.533783,214.970673 
M191.359940,243.128448 
	C182.177261,244.159714 176.324356,249.420731 172.889435,257.716522 
	C172.097794,259.628448 171.450394,261.861633 173.696793,263.032990 
	C178.987045,265.791473 184.423294,268.281586 190.532089,268.691223 
	C192.868286,268.847870 194.172119,267.810547 193.656174,265.481567 
	C192.209854,258.952759 193.417603,252.621994 194.909332,246.326920 
	C195.536224,243.681580 194.416245,243.010574 191.359940,243.128448 
M108.844719,215.276642 
	C109.810074,227.058365 115.367744,236.158722 124.686943,244.059219 
	C127.960815,230.682297 120.234367,207.788620 111.112511,202.501068 
	C108.690155,206.188705 109.433479,210.478729 108.844719,215.276642 
M202.204132,334.827118 
	C198.844009,343.514069 199.915497,349.672607 205.920670,353.824463 
	C214.253571,343.111786 218.542465,330.538055 223.601974,317.356476 
	C213.594391,320.359436 206.474945,325.277435 202.204132,334.827118 
M296.186462,98.683830 
	C294.647247,100.562218 292.762177,102.251083 292.463898,105.349991 
	C299.079346,107.351135 304.811707,110.785126 309.759583,115.837296 
	C315.850342,107.345078 317.023163,98.905586 315.182556,89.236801 
	C307.919678,90.932419 301.584808,93.014214 296.186462,98.683830 
M353.255249,193.444839 
	C353.410400,196.852310 352.796692,200.371750 354.795166,203.901382 
	C360.406372,199.394989 366.606506,196.598495 373.834167,196.658600 
	C372.394135,190.373001 361.971680,178.130219 356.026459,175.588913 
	C354.063141,181.088715 353.029083,186.685028 353.255249,193.444839 
M271.297211,300.796906 
	C274.155548,299.833130 277.395874,299.630096 279.719421,296.711334 
	C273.805206,290.111481 266.789612,286.657043 258.114014,287.469513 
	C249.346893,288.290466 248.859131,289.328461 252.357986,297.175049 
	C255.295486,303.762726 255.779785,304.045868 262.777771,302.722229 
	C265.372803,302.231445 267.937103,301.578094 271.297211,300.796906 
M299.383606,255.226059 
	C295.945526,247.619217 289.964417,243.448090 281.951599,241.438431 
	C280.528870,245.852615 280.043335,249.503723 280.799377,253.380875 
	C282.942963,264.373688 281.965179,264.625671 295.331970,263.493286 
	C301.076996,263.006531 301.551453,261.752228 299.383606,255.226059 
M272.168518,113.635658 
	C270.038391,115.324165 266.758759,115.763634 265.988556,118.902908 
	C265.598969,120.490768 272.097900,129.484741 273.742310,129.759567 
	C278.301727,130.521622 282.826233,130.482559 287.569611,128.812408 
	C285.643250,123.344376 284.988098,117.999832 285.588104,112.529465 
	C285.899536,109.690338 284.306641,109.037148 281.928040,109.468552 
	C278.616882,110.069092 275.755737,111.785278 272.168518,113.635658 
M317.983002,188.248123 
	C317.283112,191.860840 317.870850,195.223312 319.967682,199.294785 
	C324.882599,185.263336 335.381775,177.676407 347.240906,171.142014 
	C345.474731,169.431885 343.679565,169.320023 341.881409,169.188721 
	C330.268616,168.340729 322.487427,174.354233 317.983002,188.248123 
M291.434723,353.838440 
	C291.927917,351.074982 292.361664,348.299286 292.925781,345.550385 
	C294.482544,337.964386 294.473602,337.921570 286.448181,336.094086 
	C282.980164,343.051483 277.304565,348.449768 271.319702,353.859253 
	C276.267334,356.802521 281.187744,356.873688 285.771271,358.145203 
	C289.229797,359.104675 290.786652,357.925446 291.434723,353.838440 
M379.668121,124.151581 
	C381.664551,132.921829 378.959930,140.842316 374.172577,149.428391 
	C385.922180,140.211884 388.591797,130.301498 383.307465,115.676506 
	C380.037872,106.627533 375.666870,98.096825 365.443848,94.767990 
	C373.605225,102.637108 377.903442,112.283554 379.668121,124.151581 
M179.371643,368.987366 
	C175.481674,368.691895 171.591690,368.396454 166.808975,368.033203 
	C170.094421,375.878082 172.733704,383.036743 178.059875,389.615082 
	C182.871094,382.879028 187.334900,376.868713 188.665756,369.153687 
	C185.453995,367.755157 182.846527,368.819458 179.371643,368.987366 
M271.234650,233.501007 
	C265.449524,232.191971 260.302795,229.610596 255.727386,225.835510 
	C254.428787,224.764069 252.893433,223.748795 251.192215,224.781891 
	C249.617035,225.738449 250.064301,227.528091 250.363251,228.895462 
	C251.534088,234.251083 253.219162,239.426620 256.833588,244.370300 
	C263.300476,239.175522 271.273895,238.153244 279.800934,236.421967 
	C276.701935,233.538696 274.052704,234.858917 271.234650,233.501007 
M271.475677,242.054413 
	C267.248993,243.300201 263.025024,244.551300 259.697174,247.686966 
	C265.217896,255.020157 272.337799,260.141907 277.918793,260.575104 
	C277.273499,255.441544 276.253571,250.389786 276.713135,245.278717 
	C277.030792,241.745285 275.435028,240.744644 271.475677,242.054413 
M329.991699,275.533203 
	C335.003510,272.171173 338.789154,267.962738 340.222778,261.742462 
	C329.138367,260.577728 317.876099,269.915253 317.861115,279.876099 
	C322.160614,279.839752 325.825714,278.053802 329.991699,275.533203 
M298.758850,135.817215 
	C302.139954,138.993195 306.167572,140.895660 310.711273,141.617752 
	C312.529938,141.906784 314.799652,142.014862 314.618988,139.241577 
	C314.251556,133.600632 313.063599,128.164825 309.238586,122.961990 
	C304.878143,126.805618 299.996735,129.108673 295.562164,131.702484 
	C296.062866,133.782013 297.252747,134.489059 298.758850,135.817215 
M289.547424,121.647301 
	C291.942688,128.672714 292.508270,128.985107 298.235352,125.549591 
	C301.145172,123.804085 305.611237,122.453850 305.430420,118.773697 
	C305.230103,114.696594 300.677063,113.167824 297.285187,111.566605 
	C290.056366,108.154076 289.260223,108.753082 289.292999,116.835396 
	C289.298370,118.161766 289.371033,119.487862 289.547424,121.647301 
M197.278687,258.451294 
	C197.349884,260.770905 197.389664,263.056519 197.945709,265.371185 
	C198.620255,268.179047 200.082001,268.802582 202.648453,268.136505 
	C205.397415,267.423004 209.767914,268.102661 209.393585,263.952698 
	C208.778397,257.132202 206.117676,250.921295 200.126556,246.273499 
	C197.387314,249.982025 197.327744,253.766724 197.278687,258.451294 
M294.140259,222.628250 
	C291.426025,224.745193 288.043182,226.288300 287.187134,230.299896 
	C297.685638,230.582764 309.692230,224.120865 310.885223,217.604767 
	C304.683685,216.347061 299.631866,219.016678 294.140259,222.628250 
M244.111572,188.048492 
	C244.305679,194.075424 244.722427,200.060211 247.418350,206.610565 
	C249.762253,199.094360 254.063690,193.559708 257.223328,186.985687 
	C253.277924,186.263596 249.889008,185.667694 246.510941,185.015503 
	C244.636673,184.653656 244.153839,185.688248 244.111572,188.048492 
M203.956146,221.425751 
	C197.716507,220.088104 191.476868,218.750458 184.853424,217.330521 
	C184.876007,222.744888 187.717026,225.536880 191.835999,226.909958 
	C197.835678,228.909943 203.452332,228.078918 208.231232,223.542007 
	C207.394882,221.844055 205.808197,222.189957 203.956146,221.425751 
M101.774521,348.916992 
	C100.971298,350.396484 101.491974,351.593201 102.817329,352.287445 
	C109.649086,355.866058 116.771667,357.892059 124.908287,356.419373 
	C117.990356,348.218811 109.732758,345.396729 101.774521,348.916992 
M158.542770,341.419952 
	C158.442276,341.118805 158.367630,340.804230 158.222885,340.526154 
	C158.187241,340.457642 157.838425,340.438263 157.776337,340.513763 
	C154.845947,344.075500 152.062988,347.762054 148.438324,350.699188 
	C147.205536,351.698151 147.081619,353.078247 148.367599,354.094574 
	C151.771927,356.785156 155.035217,359.802612 160.170746,360.603943 
	C159.263351,354.098389 158.279907,348.089508 158.542770,341.419952 
M154.701157,218.905624 
	C159.501465,219.200684 163.765335,218.335098 166.582703,213.756866 
	C158.166504,209.463715 147.548767,209.992691 143.972031,214.889664 
	C146.824387,217.335144 150.168518,218.482193 154.701157,218.905624 
M286.913513,171.763687 
	C279.392059,173.317978 273.696716,177.911469 268.164337,182.843658 
	C277.227356,181.742126 285.949921,179.894272 293.548523,174.285141 
	C291.896088,171.750870 289.827698,171.510971 286.913513,171.763687 
M301.484924,268.792542 
	C301.406860,267.718170 301.037750,266.585693 299.832062,266.746429 
	C295.834991,267.279327 291.865265,268.017548 287.064667,268.812927 
	C291.022797,272.713745 294.408386,275.681274 298.854248,277.250946 
	C300.721832,274.777924 300.568237,271.978607 301.484924,268.792542 
M241.030258,296.584290 
	C239.898056,298.252197 237.516129,299.184692 237.877396,301.992004 
	C241.881516,303.516357 245.850861,304.452179 250.321060,302.941315 
	C248.821976,299.317780 247.873734,295.862122 245.447235,292.690521 
	C243.974899,293.976990 242.748184,295.048859 241.030258,296.584290 
M236.236786,166.620560 
	C233.647537,167.059082 232.948990,168.388229 233.126099,171.122986 
	C233.390335,175.203354 235.391800,177.081207 239.101578,177.822662 
	C241.185120,175.739349 240.500397,173.101166 240.788834,170.711548 
	C241.130341,167.882187 240.183472,166.123428 236.236786,166.620560 
M218.273834,152.429230 
	C217.107254,151.789017 216.540146,150.107300 214.760422,150.233871 
	C217.847885,161.865799 220.714279,165.321594 226.158417,163.646149 
	C224.864944,159.219299 221.581116,156.197113 218.273834,152.429230 
M257.939880,120.482376 
	C258.873932,119.052856 258.370026,117.997803 257.062073,117.168289 
	C253.614426,114.981812 250.002029,113.258476 245.106476,112.771896 
	C247.279999,117.214348 250.536423,119.728943 253.596405,122.379105 
	C255.584137,124.100609 256.434692,122.040833 257.939880,120.482376 
M384.321594,208.247620 
	C386.286804,212.317032 385.555695,217.251297 387.962494,221.464203 
	C393.484100,216.267212 393.541931,215.934769 389.460175,211.035797 
	C388.079376,209.378510 386.754486,207.524048 385.001221,206.373611 
	C383.503754,205.391037 384.336578,207.087280 384.321594,208.247620 
M207.211823,279.248688 
	C207.718140,276.899567 209.987488,274.216461 208.036545,272.262207 
	C205.921066,270.143158 203.205826,272.362701 200.512726,272.939514 
	C200.818039,276.118256 202.367096,278.504944 203.892685,280.770844 
	C205.362198,282.953461 206.267273,281.367706 207.211823,279.248688 
M225.185181,220.861465 
	C226.318466,220.834351 228.101822,221.121384 228.124756,219.783417 
	C228.177948,216.678970 226.267685,214.426727 223.638000,212.087967 
	C221.659058,214.640442 219.892746,216.918701 218.119781,219.205521 
	C220.063538,221.370804 222.397324,220.390152 225.185181,220.861465 
M206.001709,299.108215 
	C208.427048,298.644714 211.202332,299.140778 213.118423,296.747437 
	C211.249313,294.538300 209.388702,292.767609 206.810852,291.580658 
	C204.276337,293.510834 202.615128,295.918396 201.712601,298.817352 
	C203.029480,299.883759 204.162277,299.330505 206.001709,299.108215 
M264.956146,128.140656 
	C266.323029,125.250755 264.349915,123.595139 262.296204,122.796120 
	C260.782135,122.207039 259.751648,123.813156 259.709320,125.589882 
	C260.893799,127.145103 262.650726,127.659843 264.956146,128.140656 
z"/>
</svg>